<svg width="56" height="56" viewBox="0 0 56 56" fill="none" xmlns="http://www.w3.org/2000/svg">
<path fill-rule="evenodd" clip-rule="evenodd" d="M4.82166 18.688C4.17777 19.354 4 19.8946 4 20.2965V35.7039C4 36.1059 4.17777 36.6464 4.82166 37.3124C5.47485 37.9881 6.51658 38.6879 7.95904 39.319C10.838 40.5785 14.9552 41.4076 19.6085 41.4076C24.2618 41.4076 28.3789 40.5785 31.2579 39.319C32.7003 38.6879 33.7421 37.9881 34.3953 37.3124C35.0392 36.6464 35.2169 36.1059 35.2169 35.7039V20.2965C35.2169 19.8946 35.0392 19.354 34.3953 18.688C33.7421 18.0124 32.7003 17.3126 31.2579 16.6815C28.3789 15.422 24.2618 14.5928 19.6085 14.5928C14.9552 14.5928 10.838 15.422 7.95904 16.6815C6.51658 17.3126 5.47485 18.0124 4.82166 18.688ZM2 20.2965C2 16.0419 9.88358 12.5928 19.6085 12.5928C29.3334 12.5928 37.2169 16.0419 37.2169 20.2965V35.7039C37.2169 39.9586 29.3334 43.4076 19.6085 43.4076C9.88358 43.4076 2 39.9586 2 35.7039V20.2965Z" fill="#0C4C01"/>
<path fill-rule="evenodd" clip-rule="evenodd" d="M36.2169 22.862C36.8646 22.0595 37.2169 21.196 37.2169 20.2965C37.2169 16.0419 29.3334 12.5928 19.6085 12.5928C9.88358 12.5928 2 16.0419 2 20.2965C2 21.196 2.35237 22.0595 3 22.862C5.41571 25.8554 11.9396 28.0002 19.6085 28.0002C27.2774 28.0002 33.8012 25.8554 36.2169 22.862ZM34.3953 21.905C35.0392 21.239 35.2169 20.6985 35.2169 20.2965C35.2169 19.8946 35.0392 19.354 34.3953 18.688C33.7421 18.0124 32.7003 17.3126 31.2579 16.6815C28.3789 15.422 24.2618 14.5928 19.6085 14.5928C14.9552 14.5928 10.838 15.422 7.95904 16.6815C6.51658 17.3126 5.47485 18.0124 4.82166 18.688C4.17777 19.354 4 19.8946 4 20.2965C4 20.6985 4.17777 21.239 4.82166 21.905C5.47485 22.5807 6.51658 23.2805 7.95904 23.9116C10.838 25.1711 14.9552 26.0002 19.6085 26.0002C24.2618 26.0002 28.3789 25.1711 31.2579 23.9116C32.7003 23.2805 33.7421 22.5807 34.3953 21.905Z" fill="#0C4C01"/>
<path fill-rule="evenodd" clip-rule="evenodd" d="M40.0034 22.7252V15.1426H33.4235C35.4886 16.6063 37.0116 18.5701 37.0116 21.0342V34.2537H52.0001V15.1426H48.5017V22.7252H46.5017V15.1426H42.0034V22.7252H40.0034ZM37.0116 36.2537H35.0116V34.2537V21.0342C35.0116 18.6919 32.7707 16.5879 29.212 15.1426C26.149 13.8986 22.1097 13.1426 17.6826 13.1426H29.5932H40.0034H41.0034H42.0034H46.5017H47.5017H48.5017H52.0001H54.0001V15.1426V34.2537V36.2537H52.0001H37.0116Z" fill="#0C4C01"/>
<path d="M9.70361 25.799V34.6032M16.3068 26.8995V35.7038M22.91 26.8995V35.7038M29.5131 25.799V34.6032" stroke="#0C4C01" stroke-width="2"/>
</svg>
