<svg width="46" height="42" viewBox="0 0 46 42" fill="none" xmlns="http://www.w3.org/2000/svg">
<path d="M15.811 22.8245H18.8516C21.8742 22.8245 24.3245 20.3742 24.3245 17.3516V17.3516" stroke="#0C4C01" stroke-width="2"/>
<path d="M1 9.44584C1 4.96039 4.63617 1.32422 9.12162 1.32422H29.4054V17.5675H9.12163C4.63618 17.5675 1 13.9313 1 9.44584Z" stroke="#0C4C01" stroke-width="2"/>
<path d="M30 5H35.5676C36.3587 5 37 5.64132 37 6.43243V12.5676C37 13.3587 36.3587 14 35.5676 14H30V5Z" stroke="#0C4C01" stroke-width="2"/>
<path d="M37.7026 9.4458H44.9999" stroke="#0C4C01" stroke-width="2" stroke-linecap="round"/>
<path d="M2.21631 34.3782C2.21631 33.5871 2.85763 32.9458 3.64874 32.9458H14.5947C15.3858 32.9458 16.0271 33.5871 16.0271 34.3782V39.2431C16.0271 40.0342 15.3858 40.6755 14.5947 40.6755H3.64874C2.85763 40.6755 2.21631 40.0342 2.21631 39.2431V34.3782Z" stroke="#0C4C01" stroke-width="2"/>
<path d="M5.39538 33L10.4859 18H17.6046L12.5141 33H5.39538Z" stroke="#0C4C01" stroke-width="2"/>
</svg>
