<svg width="56" height="56" viewBox="0 0 56 56" fill="none" xmlns="http://www.w3.org/2000/svg">
<path d="M21.811 29.8245H24.8516C27.8742 29.8245 30.3245 27.3741 30.3245 24.3515V24.3515" stroke="#0C4C01" stroke-width="2"/>
<path d="M7 16.4458C7 11.9604 10.6362 8.32422 15.1216 8.32422H35.4054V24.5675H15.1216C10.6362 24.5675 7 20.9313 7 16.4458Z" stroke="#0C4C01" stroke-width="2"/>
<path d="M36 12H41.5676C42.3587 12 43 12.6413 43 13.4324V19.5676C43 20.3587 42.3587 21 41.5676 21H36V12Z" stroke="#0C4C01" stroke-width="2"/>
<path d="M43.7026 16.446H50.9999" stroke="#0C4C01" stroke-width="2" stroke-linecap="round"/>
<path d="M8.21631 41.3784C8.21631 40.5872 8.85763 39.9459 9.64874 39.9459H20.5947C21.3858 39.9459 22.0271 40.5872 22.0271 41.3784V46.2432C22.0271 47.0343 21.3858 47.6757 20.5947 47.6757H9.64874C8.85763 47.6757 8.21631 47.0343 8.21631 46.2432V41.3784Z" stroke="#0C4C01" stroke-width="2"/>
<path d="M11.3954 40L16.4859 25H23.6046L18.5141 40H11.3954Z" stroke="#0C4C01" stroke-width="2"/>
</svg>
