<svg width="32" height="32" viewBox="0 0 32 32" fill="none" xmlns="http://www.w3.org/2000/svg">
<mask id="mask0_104_478" style="mask-type:alpha" maskUnits="userSpaceOnUse" x="5" y="5" width="22" height="22">
<path d="M5 14.7778C5 10.1685 5 7.86385 6.43192 6.43192C7.86385 5 10.1685 5 14.7778 5H17.2222C21.8315 5 24.1362 5 25.5681 6.43192C27 7.86385 27 10.1685 27 14.7778V17.2222C27 21.8315 27 24.1362 25.5681 25.5681C24.1362 27 21.8315 27 17.2222 27H14.7778C10.1685 27 7.86385 27 6.43192 25.5681C5 24.1362 5 21.8315 5 17.2222V14.7778Z" fill="#273B4A"/>
</mask>
<g mask="url(#mask0_104_478)">
<path d="M7.94542 16.7213L7.75872 16.908L7.75872 16.908C6.56012 18.1066 5.96082 18.7059 5.60212 19.4416C5.47747 19.6973 5.37537 19.9634 5.29698 20.2368C5.07142 21.0236 5.11596 21.87 5.20505 23.5627L5.61111 31.2778H27V25.4812C27 23.7072 27 22.8202 26.7084 22.0142C26.6287 21.7938 26.5332 21.5795 26.4227 21.3728C26.0187 20.6169 25.3594 20.0235 24.0408 18.8368L23.7786 18.6008C22.6834 17.6151 22.1358 17.1222 21.5095 16.9826C21.1167 16.895 20.7084 16.9057 20.3208 17.0138C19.7027 17.1862 19.1818 17.7072 18.1399 18.7491C17.367 19.5219 16.9806 19.9084 16.5653 19.9608C16.3079 19.9933 16.0468 19.943 15.8198 19.8172C15.4537 19.6143 15.2352 19.1043 14.798 18.0843C13.8683 15.915 13.4034 14.8303 12.6043 14.4297C12.2019 14.228 11.7517 14.1413 11.3032 14.1791C10.4124 14.2543 9.5901 15.0766 7.94542 16.7213Z" stroke="#0C4C01" stroke-width="2"/>
</g>
<path d="M5 14.7778C5 10.1685 5 7.86385 6.43192 6.43192C7.86385 5 10.1685 5 14.7778 5H17.2222C21.8315 5 24.1362 5 25.5681 6.43192C27 7.86385 27 10.1685 27 14.7778V17.2222C27 21.8315 27 24.1362 25.5681 25.5681C24.1362 27 21.8315 27 17.2222 27H14.7778C10.1685 27 7.86385 27 6.43192 25.5681C5 24.1362 5 21.8315 5 17.2222V14.7778Z" stroke="#0C4C01" stroke-width="2"/>
<circle cx="21.4998" cy="10.5" r="1.83333" fill="#0C4C01"/>
</svg>
