<svg width="24" height="25" viewBox="0 0 24 25" fill="none" xmlns="http://www.w3.org/2000/svg">
<path fill-rule="evenodd" clip-rule="evenodd" d="M1 4.41667C1 3.08198 2.08198 2 3.41667 2C4.75135 2 5.83333 3.08198 5.83333 4.41667V4.5H17.6667V4.41667C17.6667 3.08198 18.7486 2 20.0833 2C21.418 2 22.5 3.08198 22.5 4.41667V21.0833C22.5 22.418 21.418 23.5 20.0833 23.5C18.7486 23.5 17.6667 22.418 17.6667 21.0833V21H5.83333V21.0833C5.83333 22.418 4.75136 23.5 3.41667 23.5C2.08198 23.5 1 22.418 1 21.0833V4.41667ZM5.83333 19.5H11V6H5.83333V19.5ZM12.5 19.5H17.6667V6H12.5V19.5ZM3.41667 3.5C2.91041 3.5 2.5 3.91041 2.5 4.41667V21.0833C2.5 21.5896 2.91041 22 3.41667 22C3.92293 22 4.33333 21.5896 4.33333 21.0833V4.41667C4.33333 3.91041 3.92293 3.5 3.41667 3.5ZM20.0833 3.5C19.5771 3.5 19.1667 3.91041 19.1667 4.41667V21.0833C19.1667 21.5896 19.5771 22 20.0833 22C20.5896 22 21 21.5896 21 21.0833V4.41667C21 3.91041 20.5896 3.5 20.0833 3.5ZM14.75 13.75C15.3023 13.75 15.75 13.3023 15.75 12.75C15.75 12.1977 15.3023 11.75 14.75 11.75C14.1977 11.75 13.75 12.1977 13.75 12.75C13.75 13.3023 14.1977 13.75 14.75 13.75Z" fill="black"/>
</svg>
