<svg width="56" height="56" viewBox="0 0 56 56" fill="none" xmlns="http://www.w3.org/2000/svg">
<path d="M47.1663 43.1071V10.9762C47.1663 9.55142 45.6669 8.62472 44.3925 9.26191L40.3568 11.2798C39.8172 11.5496 39.1821 11.5496 38.6425 11.2798L32.6902 8.30358C32.1506 8.03378 31.5154 8.03378 30.9758 8.30358L25.0235 11.2798C24.4839 11.5496 23.8488 11.5496 23.3092 11.2798L17.3568 8.30358C16.8172 8.03378 16.1821 8.03378 15.6425 8.30358L9.89252 11.1786C9.24318 11.5032 8.83301 12.1669 8.83301 12.8929V45.0238C8.83301 46.4486 10.3324 47.3753 11.6068 46.7381L15.6425 44.7202C16.1821 44.4504 16.8172 44.4504 17.3568 44.7202L23.3092 47.6964C23.8488 47.9662 24.4839 47.9662 25.0235 47.6964L30.9758 44.7202C31.5154 44.4504 32.1506 44.4504 32.6902 44.7202L38.6425 47.6964C39.1821 47.9662 39.8172 47.9662 40.3568 47.6964L46.1068 44.8214C46.7562 44.4967 47.1663 43.8331 47.1663 43.1071Z" stroke="#0C4C01" stroke-width="2" stroke-linejoin="round"/>
<path d="M16.5 7.875V44.2917" stroke="#0C4C01" stroke-width="2" stroke-linecap="round"/>
<path d="M24.167 11.7083V48.1249" stroke="#0C4C01" stroke-width="2" stroke-linecap="round"/>
<path d="M31.833 7.875V44.2917" stroke="#0C4C01" stroke-width="2" stroke-linecap="round"/>
<path d="M39.5 11.7083V48.1249" stroke="#0C4C01" stroke-width="2" stroke-linecap="round"/>
</svg>
