<svg width="32" height="32" viewBox="0 0 32 32" fill="none" xmlns="http://www.w3.org/2000/svg">
<path fill-rule="evenodd" clip-rule="evenodd" d="M2.99873 11.4157C2.99847 11.4157 2.9986 11.4129 2.99989 11.4071C2.99964 11.4128 2.99899 11.4157 2.99873 11.4157ZM3 11.4067C3.00707 11.376 3.04644 11.2672 3.22862 11.0787C3.49994 10.7981 3.98909 10.454 4.74872 10.1217C6.26205 9.45959 8.49257 9 11.062 9C13.6314 9 15.8619 9.45959 17.3752 10.1217C18.1349 10.454 18.624 10.7981 18.8953 11.0787C19.0775 11.2672 19.1169 11.376 19.124 11.4067V20.2018C19.1169 20.2325 19.0775 20.3413 18.8953 20.5297C18.624 20.8104 18.1349 21.1545 17.3752 21.4868C15.8619 22.1489 13.6314 22.6085 11.062 22.6085C8.49257 22.6085 6.26205 22.1489 4.74872 21.4868C3.98909 21.1545 3.49994 20.8104 3.22862 20.5297C3.04644 20.3413 3.00707 20.2325 3 20.2018V11.4067ZM2.99873 20.1928C2.99899 20.1928 2.99964 20.1956 2.99989 20.2013C2.9986 20.1956 2.99847 20.1928 2.99873 20.1928ZM19.1252 20.1928C19.1255 20.1928 19.1254 20.1956 19.1241 20.2013C19.1243 20.1956 19.125 20.1928 19.1252 20.1928ZM19.1252 11.4157C19.125 11.4157 19.1243 11.4128 19.1241 11.4071C19.1254 11.4128 19.1255 11.4157 19.1252 11.4157ZM1 11.4021C1 8.97089 5.5049 7 11.062 7C16.6191 7 21.124 8.97089 21.124 11.4021V20.2063C21.124 22.6376 16.6191 24.6085 11.062 24.6085C5.5049 24.6085 1 22.6376 1 20.2063V11.4021Z" fill="#0C4C01"/>
<path fill-rule="evenodd" clip-rule="evenodd" d="M20.274 13.1757C20.8205 12.6331 21.124 12.0331 21.124 11.4021C21.124 8.97089 16.6191 7 11.062 7C5.5049 7 1 8.97089 1 11.4021C1 12.0331 1.30345 12.6331 1.85 13.1757C3.40928 14.7236 6.94719 15.8042 11.062 15.8042C15.1768 15.8042 18.7147 14.7236 20.274 13.1757ZM19.111 11.934C19.4101 11.6246 19.424 11.4475 19.424 11.4021C19.424 11.3568 19.4101 11.1796 19.111 10.8702C18.804 10.5527 18.2777 10.1891 17.4955 9.84682C15.936 9.16456 13.6628 8.7 11.062 8.7C8.4612 8.7 6.18793 9.16456 4.62848 9.84682C3.84623 10.1891 3.31993 10.5527 3.01293 10.8702C2.71385 11.1796 2.7 11.3568 2.7 11.4021C2.7 11.4475 2.71385 11.6246 3.01293 11.934C3.31993 12.2516 3.84623 12.6152 4.62848 12.9574C6.18793 13.6397 8.4612 14.1042 11.062 14.1042C13.6628 14.1042 15.936 13.6397 17.4955 12.9574C18.2777 12.6152 18.804 12.2516 19.111 11.934Z" fill="#0C4C01"/>
<path fill-rule="evenodd" clip-rule="evenodd" d="M23.4994 13.6974C23.03 13.6974 22.6494 13.3168 22.6494 12.8474V9.33428H20.0325C20.616 10.0324 21.0342 10.9082 21.0342 11.9274V18.507H28.7143C28.88 18.507 29.0143 18.3727 29.0143 18.207V9.63428C29.0143 9.46859 28.88 9.33428 28.7143 9.33428H27.9568V12.8474C27.9568 13.3168 27.5763 13.6974 27.1068 13.6974C26.6374 13.6974 26.2568 13.3168 26.2568 12.8474V9.33428H24.3494V12.8474C24.3494 13.3168 23.9688 13.6974 23.4994 13.6974ZM21.0342 20.207H19.3342V18.507V11.9274C19.3342 10.9532 18.607 10.0547 17.3817 9.33428C15.625 8.30134 12.8442 7.63428 9.71436 7.63428H17.8202H22.6494H23.4994H24.3494H26.2568H27.1068H27.9568H28.7143C29.8189 7.63428 30.7143 8.52971 30.7143 9.63428V18.207C30.7143 19.3116 29.8189 20.207 28.7143 20.207H21.0342Z" fill="#0C4C01"/>
<path d="M5.40186 14.5464V18.5774M9.1751 15.1753V19.2063M12.9483 15.1753V19.2063M16.7216 14.5464V18.5774" stroke="#0C4C01" stroke-width="1.7" stroke-linecap="round"/>
</svg>
