<svg width="60" height="60" viewBox="0 0 60 60" fill="none" xmlns="http://www.w3.org/2000/svg">
<g clip-path="url(#clip0_82_789)">
<path d="M29.745 59.6471C46.1727 59.6471 59.4899 46.3298 59.4899 29.9021C59.4899 13.4744 46.1727 0.157166 29.745 0.157166C13.3173 0.157166 0 13.4744 0 29.9021C0 46.3298 13.3173 59.6471 29.745 59.6471Z" fill="white"/>
<path d="M22.6167 16.8791L20.7863 14.3644L17.9067 18.3445C17.9067 18.3445 18.9046 19.0401 18.7222 20.1464C19.3722 20.0095 20.0479 20.4286 20.0479 20.4286L22.6167 16.8791Z" fill="#4C4A3F"/>
<path d="M21.2876 13.6689H42.4538L50.1174 24.2519H28.9512L21.2876 13.6689Z" fill="#AFA994"/>
<path fill-rule="evenodd" clip-rule="evenodd" d="M29.3166 31.0035L27.6745 28.9963L26.0322 31.0035H29.3166ZM29.3166 31.0035H26.0322V46.3308H29.3166V31.0035Z" fill="#1DB604"/>
<path fill-rule="evenodd" clip-rule="evenodd" d="M36.2502 31.0035L34.608 28.9963L32.9658 31.0035H36.2502ZM36.2502 31.0035H32.9658V46.3308H36.2502V31.0035Z" fill="#1DB604"/>
<path fill-rule="evenodd" clip-rule="evenodd" d="M43.1838 31.0035L41.5416 28.9963L39.8994 31.0035H43.1838ZM43.1838 31.0035H39.8994V46.3308H43.1838V31.0035Z" fill="#1DB604"/>
<path fill-rule="evenodd" clip-rule="evenodd" d="M50.1179 31.0035L48.4757 28.9963L46.8335 31.0035H50.1179ZM50.1179 31.0035H46.8335V46.3308H50.1179V31.0035Z" fill="#1DB604"/>
<path d="M32.236 34.105H30.0464V35.1998H32.236V34.105Z" fill="#0C4D01"/>
<path d="M32.236 43.5934H30.0464V44.6882H32.236V43.5934Z" fill="#0C4D01"/>
<path d="M39.1696 34.105H36.98V35.1998H39.1696V34.105Z" fill="#0C4D01"/>
<path d="M39.1696 43.5934H36.98V44.6882H39.1696V43.5934Z" fill="#0C4D01"/>
<path d="M46.1032 34.105H43.9136V35.1998H46.1032V34.105Z" fill="#0C4D01"/>
<path d="M46.1032 43.5934H43.9136V44.6882H46.1032V43.5934Z" fill="#0C4D01"/>
<path fill-rule="evenodd" clip-rule="evenodd" d="M18.704 21.0483C18.4779 21.0483 18.2564 21.0674 18.0408 21.1043C17.9557 19.0187 16.2381 17.3541 14.1317 17.3541C12.0253 17.3541 10.3076 19.0187 10.2226 21.1043C10.007 21.0674 9.78542 21.0483 9.5594 21.0483C7.39862 21.0483 5.64697 22.7999 5.64697 24.9607C5.64697 26.5027 6.53905 27.8363 7.83528 28.4737C7.58095 28.9927 7.43822 29.5761 7.43822 30.1931C7.43822 32.3538 9.1898 34.1054 11.3506 34.1054C12.4384 34.1054 13.4225 33.6615 14.1317 32.9448C14.8408 33.6615 15.8249 34.1054 16.9128 34.1054C19.0736 34.1054 20.8252 32.3538 20.8252 30.1931C20.8252 29.5761 20.6824 28.9927 20.4281 28.4737C21.7243 27.8363 22.6164 26.5027 22.6164 24.9607C22.6164 22.7999 20.8647 21.0483 18.704 21.0483Z" fill="#0C4C01"/>
<path fill-rule="evenodd" clip-rule="evenodd" d="M18.0606 46.1022H14.1319V34.6523C14.5285 36.7859 14.6889 38.5835 14.8223 40.08C15.1368 43.6069 15.3023 45.4617 18.0606 46.1022ZM14.1319 46.1022V34.6523C13.7352 36.7859 13.5749 38.5839 13.4414 40.0804C13.1269 43.6072 12.9614 45.4621 10.2031 46.1025L14.1319 46.1022Z" fill="#0C4C01"/>
<path d="M18.4369 35.2H17.5474V42.1338H18.4369V35.2Z" fill="#4C4A3F"/>
<path d="M25.0742 42.1337V41.2441H17.6387V42.1337H25.0742Z" fill="#4C4A3F"/>
</g>
<defs>
<clipPath id="clip0_82_789">
<rect width="60" height="60" fill="white"/>
</clipPath>
</defs>
</svg>
