<svg width="32" height="32" viewBox="0 0 32 32" fill="none" xmlns="http://www.w3.org/2000/svg">
<path d="M6.67153 22.4572H5.48105C4.16609 22.4572 3.1001 21.3827 3.1001 20.0572V9.25718C3.1001 7.93169 4.16609 6.85718 5.48105 6.85718H16.1953C17.5103 6.85718 18.5763 7.93169 18.5763 9.25718V20.0572C18.5763 21.3827 17.5103 22.4572 16.1953 22.4572H15.0049M20.362 22.4572H19.7668C19.1093 22.4572 18.5763 21.9199 18.5763 21.2572V11.0572C18.5763 10.3944 19.1093 9.85718 19.7668 9.85718H22.766C23.1277 9.85718 23.4697 10.0229 23.6956 10.3075L27.8392 15.5285C28.0081 15.7413 28.1001 16.0056 28.1001 16.2781V21.2572C28.1001 21.9199 27.5671 22.4572 26.9096 22.4572M13.8144 21.8572C13.8144 23.514 12.4819 24.8572 10.8382 24.8572C9.19449 24.8572 7.862 23.514 7.862 21.8572C7.862 20.2003 9.19449 18.8572 10.8382 18.8572C12.4819 18.8572 13.8144 20.2003 13.8144 21.8572ZM26.3144 21.8572C26.3144 23.514 24.9819 24.8572 23.3382 24.8572C21.6945 24.8572 20.362 23.514 20.362 21.8572C20.362 20.2003 21.6945 18.8572 23.3382 18.8572C24.9819 18.8572 26.3144 20.2003 26.3144 21.8572Z" stroke="#0C4C01" stroke-width="2" stroke-linecap="round"/>
</svg>
