<svg width="32" height="32" viewBox="0 0 32 32" fill="none" xmlns="http://www.w3.org/2000/svg">
<path d="M17.8954 4H12.3333C9.81918 4 8.5621 4 7.78105 4.78105C7 5.5621 7 6.81918 7 9.33333V22.6667C7 25.1808 7 26.4379 7.78105 27.219C8.5621 28 9.81918 28 12.3333 28H20.3333C22.8475 28 24.1046 28 24.8856 27.219C25.6667 26.4379 25.6667 25.1808 25.6667 22.6667V11.7712C25.6667 11.2262 25.6667 10.9537 25.5652 10.7087C25.4637 10.4637 25.271 10.271 24.8856 9.88562L19.781 4.78105C19.3957 4.39567 19.203 4.20299 18.958 4.10149C18.7129 4 18.4404 4 17.8954 4Z" stroke="#0C4C01" stroke-width="2"/>
<path d="M12.3335 17.3333L20.3335 17.3333" stroke="#0C4C01" stroke-width="2" stroke-linecap="round"/>
<path d="M12.3335 22.6667L17.6668 22.6667" stroke="#0C4C01" stroke-width="2" stroke-linecap="round"/>
<path d="M17.667 4V9.33333C17.667 10.5904 17.667 11.219 18.0575 11.6095C18.448 12 19.0766 12 20.3337 12H25.667" stroke="#0C4C01" stroke-width="2"/>
</svg>
