<svg width="56" height="56" viewBox="0 0 56 56" fill="none" xmlns="http://www.w3.org/2000/svg">
<path d="M6 16.8284C6 16.5632 6.10536 16.3089 6.29289 16.1213L5.58579 15.4142L6.29289 16.1213L11.2929 11.1213C11.6834 10.7308 12.3166 10.7308 12.7071 11.1213L17.7071 16.1213C17.8946 16.3089 18 16.5632 18 16.8284V46H6L6 16.8284Z" stroke="#0C4C01" stroke-width="2"/>
<path d="M22 16.8284C22 16.5632 22.1054 16.3089 22.2929 16.1213L21.5858 15.4142L22.2929 16.1213L27.2929 11.1213C27.6834 10.7308 28.3166 10.7308 28.7071 11.1213L33.7071 16.1213C33.8946 16.3089 34 16.5632 34 16.8284V46H22L22 16.8284Z" stroke="#0C4C01" stroke-width="2"/>
<path d="M38 16.8284C38 16.5632 38.1054 16.3089 38.2929 16.1213L37.5858 15.4142L38.2929 16.1213L43.2929 11.1213C43.6834 10.7308 44.3166 10.7308 44.7071 11.1213L49.7071 16.1213C49.8946 16.3089 50 16.5632 50 16.8284V46H38L38 16.8284Z" stroke="#0C4C01" stroke-width="2"/>
<path d="M18 25H22" stroke="#0C4C01" stroke-width="2"/>
<path d="M34 25H38" stroke="#0C4C01" stroke-width="2"/>
<path d="M18 35H22" stroke="#0C4C01" stroke-width="2"/>
<path d="M35 35H39" stroke="#0C4C01" stroke-width="2"/>
</svg>
