<svg width="60" height="60" viewBox="0 0 60 60" fill="none" xmlns="http://www.w3.org/2000/svg">
<g clip-path="url(#clip0_42_148)">
<path d="M29.745 59.6472C46.1727 59.6472 59.4899 46.3299 59.4899 29.9022C59.4899 13.4745 46.1727 0.157227 29.745 0.157227C13.3173 0.157227 0 13.4745 0 29.9022C0 46.3299 13.3173 59.6472 29.745 59.6472Z" fill="white"/>
<path d="M22.6167 16.8789L20.7863 14.3643L17.9067 18.3443C17.9067 18.3443 18.9046 19.04 18.7222 20.1462C19.3722 20.0093 20.0479 20.4284 20.0479 20.4284L22.6167 16.8789Z" fill="#4C4A3F"/>
<path d="M21.2876 13.6689H42.4538L50.1174 24.252H28.9512L21.2876 13.6689Z" fill="#AFA994"/>
<path fill-rule="evenodd" clip-rule="evenodd" d="M29.3166 31.0033L27.6745 28.9961L26.0322 31.0033H29.3166ZM29.3166 31.0033H26.0322V46.3306H29.3166V31.0033Z" fill="#1DB604"/>
<path fill-rule="evenodd" clip-rule="evenodd" d="M36.2502 31.0033L34.608 28.9961L32.9658 31.0033H36.2502ZM36.2502 31.0033H32.9658V46.3306H36.2502V31.0033Z" fill="#1DB604"/>
<path fill-rule="evenodd" clip-rule="evenodd" d="M43.1838 31.0033L41.5416 28.9961L39.8994 31.0033H43.1838ZM43.1838 31.0033H39.8994V46.3306H43.1838V31.0033Z" fill="#1DB604"/>
<path fill-rule="evenodd" clip-rule="evenodd" d="M50.1179 31.0033L48.4757 28.9961L46.8335 31.0033H50.1179ZM50.1179 31.0033H46.8335V46.3306H50.1179V31.0033Z" fill="#1DB604"/>
<path d="M32.236 34.1055H30.0464V35.2003H32.236V34.1055Z" fill="#0C4D01"/>
<path d="M32.236 43.5938H30.0464V44.6886H32.236V43.5938Z" fill="#0C4D01"/>
<path d="M39.1696 34.1055H36.98V35.2003H39.1696V34.1055Z" fill="#0C4D01"/>
<path d="M39.1696 43.5938H36.98V44.6886H39.1696V43.5938Z" fill="#0C4D01"/>
<path d="M46.1032 34.1055H43.9136V35.2003H46.1032V34.1055Z" fill="#0C4D01"/>
<path d="M46.1032 43.5938H43.9136V44.6886H46.1032V43.5938Z" fill="#0C4D01"/>
<path fill-rule="evenodd" clip-rule="evenodd" d="M18.704 21.0487C18.4779 21.0487 18.2564 21.0679 18.0408 21.1047C17.9557 19.0191 16.2381 17.3545 14.1317 17.3545C12.0253 17.3545 10.3076 19.0191 10.2226 21.1047C10.007 21.0679 9.78542 21.0487 9.5594 21.0487C7.39862 21.0487 5.64697 22.8004 5.64697 24.9611C5.64697 26.5031 6.53905 27.8367 7.83528 28.4741C7.58095 28.9931 7.43822 29.5766 7.43822 30.1935C7.43822 32.3542 9.1898 34.1059 11.3506 34.1059C12.4384 34.1059 13.4225 33.6619 14.1317 32.9452C14.8408 33.6619 15.8249 34.1059 16.9128 34.1059C19.0736 34.1059 20.8252 32.3542 20.8252 30.1935C20.8252 29.5766 20.6824 28.9931 20.4281 28.4741C21.7243 27.8367 22.6164 26.5031 22.6164 24.9611C22.6164 22.8004 20.8647 21.0487 18.704 21.0487Z" fill="#0C4C01"/>
<path fill-rule="evenodd" clip-rule="evenodd" d="M18.0606 46.1022H14.1319V34.6523C14.5285 36.7859 14.6889 38.5835 14.8223 40.08C15.1368 43.6069 15.3023 45.4617 18.0606 46.1022ZM14.1319 46.1022V34.6523C13.7352 36.7859 13.5749 38.5839 13.4414 40.0804C13.1269 43.6072 12.9614 45.4621 10.2031 46.1025L14.1319 46.1022Z" fill="#0C4C01"/>
<path d="M18.4369 35.2002H17.5474V42.1339H18.4369V35.2002Z" fill="#4C4A3F"/>
<path d="M25.0742 42.1337V41.2441H17.6387V42.1337H25.0742Z" fill="#4C4A3F"/>
</g>
<defs>
<clipPath id="clip0_42_148">
<rect width="60" height="60" fill="white"/>
</clipPath>
</defs>
</svg>
