<svg width="32" height="32" viewBox="0 0 32 32" fill="none" xmlns="http://www.w3.org/2000/svg">
<path d="M7.19485 8.01891L7.58877 8.93806L7.19485 8.01891C6.23908 8.42853 5.6697 9.42117 5.79868 10.453L6.616 16.9915C6.89905 19.2559 8.03173 21.3283 9.78484 22.7892L14.5061 26.7236C15.3714 27.4446 16.6283 27.4446 17.4936 26.7236L22.2148 22.7892C23.9679 21.3283 25.1006 19.2559 25.3837 16.9915L26.201 10.453C26.33 9.42118 25.7606 8.42853 24.8048 8.01891L16.919 4.63926C16.332 4.38772 15.6676 4.38772 15.0807 4.63926L7.19485 8.01891Z" stroke="#0C4C01" stroke-width="2" stroke-linecap="round"/>
<path d="M11.5002 16L14.4728 19.3973C14.7472 19.7109 15.2387 19.6988 15.4973 19.3721L21.3335 12" stroke="#0C4C01" stroke-width="2" stroke-linecap="round"/>
</svg>
