<svg width="32" height="33" viewBox="0 0 32 33" fill="none" xmlns="http://www.w3.org/2000/svg">
<path fill-rule="evenodd" clip-rule="evenodd" d="M20.2968 21.5315C22.0522 18.9207 23.3332 16.0861 23.3332 13.5C23.3332 9.44993 20.0499 6.16669 15.9998 6.16669C11.9497 6.16669 8.6665 9.44993 8.6665 13.5C8.6665 16.086 9.94751 18.9207 11.7029 21.5315C13.1737 23.7191 14.8542 25.5692 15.9998 26.7304C17.1455 25.5692 18.826 23.7191 20.2968 21.5315ZM16.8523 28.7023C19.1558 26.4625 25.3332 19.863 25.3332 13.5C25.3332 8.34536 21.1545 4.16669 15.9998 4.16669C10.8452 4.16669 6.6665 8.34536 6.6665 13.5C6.6665 19.863 12.8438 26.4625 15.1474 28.7023C15.6268 29.1685 16.3728 29.1685 16.8523 28.7023Z" fill="#0C4C01"/>
<circle cx="16" cy="13.5" r="4" stroke="#0C4C01" stroke-width="2"/>
</svg>
