<svg width="32" height="32" viewBox="0 0 32 32" fill="none" xmlns="http://www.w3.org/2000/svg">
<path d="M18.6663 19.9999L13.333 25.3333L18.6663 30.6666" stroke="#0C4C01" stroke-width="2"/>
<path d="M24.0826 11.3333C24.9017 12.7521 25.333 14.3616 25.333 16C25.333 17.6383 24.9017 19.2478 24.0826 20.6666C23.2634 22.0855 22.0852 23.2637 20.6663 24.0829C19.2475 24.902 17.638 25.3333 15.9997 25.3333" stroke="#0C4C01" stroke-width="2" stroke-linecap="round"/>
<path d="M13.3337 12.0001L18.667 6.66673L13.3337 1.33339" stroke="#0C4C01" stroke-width="2"/>
<path d="M7.91742 20.6667C7.09825 19.2479 6.66699 17.6384 6.66699 16C6.66699 14.3617 7.09825 12.7522 7.91742 11.3334C8.73659 9.91453 9.91481 8.73631 11.3337 7.91714C12.7525 7.09797 14.362 6.66671 16.0003 6.66671" stroke="#0C4C01" stroke-width="2" stroke-linecap="round"/>
</svg>
