<svg width="56" height="57" viewBox="0 0 56 57" fill="none" xmlns="http://www.w3.org/2000/svg">
<path fill-rule="evenodd" clip-rule="evenodd" d="M32.4515 7.53549C30.1384 5.48801 26.6613 5.48801 24.3483 7.53549L22.5665 9.11267C21.5445 10.0174 20.249 10.554 18.8865 10.637L16.5114 10.7816C13.4281 10.9694 10.9694 13.4281 10.7816 16.5114L10.637 18.8865C10.554 20.249 10.0174 21.5445 9.11267 22.5665L7.53549 24.3483C5.48801 26.6613 5.48801 30.1384 7.53549 32.4515L9.11267 34.2332C10.0174 35.2553 10.554 36.5508 10.637 37.9132L10.7816 40.2883C10.9694 43.3717 13.4281 45.8303 16.5114 46.0181L18.8865 46.1628C20.249 46.2458 21.5445 46.7824 22.5665 47.6871L24.3483 49.2643C26.6613 51.3117 30.1384 51.3117 32.4515 49.2643L34.2332 47.6871C35.2553 46.7824 36.5508 46.2458 37.9132 46.1628L40.2883 46.0181C43.3717 45.8303 45.8303 43.3717 46.0181 40.2883L46.1628 37.9132C46.2458 36.5508 46.7824 35.2553 47.6871 34.2332L49.2643 32.4515C51.3117 30.1384 51.3117 26.6613 49.2643 24.3483L47.6871 22.5665C46.7824 21.5445 46.2458 20.249 46.1628 18.8865L46.0181 16.5114C45.8303 13.4281 43.3717 10.9694 40.2883 10.7816L37.9132 10.637C36.5508 10.554 35.2553 10.0174 34.2332 9.11267L32.4515 7.53549ZM38.2141 21.4141C38.9951 20.633 38.9951 19.3667 38.2141 18.5857C37.433 17.8046 36.1667 17.8046 35.3857 18.5857L18.5857 35.3857C17.8046 36.1667 17.8046 37.433 18.5857 38.2141C19.3667 38.9951 20.633 38.9951 21.4141 38.2141L38.2141 21.4141ZM22.6806 19.8413C21.9035 19.0563 20.6372 19.0499 19.8522 19.827C19.0673 20.6041 19.0609 21.8704 19.838 22.6554L19.871 22.6887C20.6481 23.4737 21.9144 23.4801 22.6994 22.703C23.4844 21.9259 23.4907 20.6596 22.7136 19.8746L22.6806 19.8413ZM36.9386 34.2458C36.1616 33.4608 34.8952 33.4543 34.1102 34.2314C33.3252 35.0084 33.3187 36.2747 34.0957 37.0598L34.1288 37.0931C34.9058 37.8782 36.1721 37.8846 36.9571 37.1076C37.7422 36.3305 37.7487 35.0642 36.9716 34.2792L36.9386 34.2458Z" fill="#0C4C01"/>
</svg>
